# AST/ASF file generated using VICON BodyLanguage
# -----------------------------------------------
:version 1.10
:name VICON
:units
  mass 1.0
  length 0.45
  angle deg
:documentation
   .ast/.asf automatically generated from VICON data using
   VICON BodyBuilder and BodyLanguage model FoxedUp or BRILLIANT.MOD
:root
   order TX TY TZ RX RY RZ
   axis XYZ
   position 0 0 0  
   orientation 0 0 0 
:bonedata
  begin
     id 1 
     name lhipjoint
     direction 0.662698 -0.695252 0.27831 
     length 2.53073 
     axis 0 0 0  XYZ
  end
  begin
     id 2 
     name lfemur
     direction 0.34202 -0.939693 0  
     length 7.16147  
     axis 0 0 20  XYZ
    dof rx ry rz
    limits (-160.0 20.0)
           (-70.0 70.0)
           (-60.0 70.0)
  end
  begin
     id 3 
     name ltibia
     direction 0.34202 -0.939693 0   
     length 7.63967   
     axis 0 0 20   XYZ
    dof rx
    limits (-10.0 170.0)
  end
  begin
     id 4 
     name lfoot
     direction 0.0938457 -0.257721 0.961651   
     length 1.89793   
     axis -90 7.62852e-016 20   XYZ
    dof rx rz
    limits (-45.0 90.0)
           (-70.0 20.0)
  end
  begin
     id 5 
     name ltoes
     direction -0.00116841 -0.0030592 0.999995   
     length 0.955649   
     axis -90 7.62852e-016 20   XYZ
    dof rx
    limits (-90.0 20.0)
  end
  begin
     id 6 
     name rhipjoint
     direction -0.649445 -0.705948 0.282592   
     length 2.49238  
     axis 0 0 0  XYZ 
  end
  begin
     id 7 
     name rfemur
     direction -0.34202 -0.939693 0   
     length 6.90728   
     axis 0 0 -20   XYZ
    dof rx ry rz
    limits (-160.0 20.0)
           (-70.0 70.0)
           (-70.0 60.0)
  end
  begin
     id 8 
     name rtibia
     direction -0.34202 -0.939693 0   
     length 7.72868   
     axis 0 0 -20   XYZ
    dof rx
    limits (-10.0 170.0)
 end
 begin
     id 9 
     name rfoot
     direction -0.0920068 -0.252865 0.963117   
     length 1.97476  
     axis -90 -7.62852e-016 -20   XYZ
    dof rx rz
    limits (-45.0 90.0)
           (-20.0 70.0)
  end
  begin
     id 10 
     name rtoes
     direction 0.000391322 0.00230649 0.999997   
     length 0.992641   
     axis -90 -7.62852e-016 -20   XYZ
    dof rx
    limits (-90.0 20.0)
  end
  begin
     id 11 
     name lowerback
     direction -0.00875327 0.998321 -0.0572635   
     length 2.20024   
     axis 0 0 0   XYZ
    dof rx ry rz
    limits (-20.0 45.0)
           (-30.0 30.0)
           (-30.0 30.0)
  end
  begin
     id 12 
     name upperback
     direction 0.00753931 0.999972 -0.000360425   
     length 2.20538   
     axis 0 0 0   XYZ
    dof rx ry rz
    limits (-20.0 45.0)
           (-30.0 30.0)
           (-30.0 30.0)
  end
  begin
     id 13 
     name thorax
     direction 0.0117767 0.999601 0.0256663   
     length 2.21508   
     axis 0 0 0   XYZ
    dof rx ry rz
    limits (-20.0 45.0)
           (-30.0 30.0)
           (-30.0 30.0)
  end
  begin
     id 14 
     name lowerneck
     direction 0.060228 0.994909 0.0807986   
     length 1.7607   
     axis 0 0 0   XYZ
    dof rx ry rz
    limits (-20.0 45.0)
           (-30.0 30.0)
           (-30.0 30.0)
  end
  begin
     id 15 
     name upperneck
     direction -0.0563647 0.959594 -0.275685   
     length 1.75612   
     axis 0 0 0   XYZ
    dof rx ry rz
    limits (-20.0 45.0)
           (-30.0 30.0)
           (-30.0 30.0)
  end
  begin
     id 16
     name head
     direction -0.0161544 0.99458 -0.102714  
     length 1.79288  
     axis 0 0 0   XYZ
    dof rx ry rz
    limits (-20.0 45.0)
           (-30.0 30.0)
           (-30.0 30.0)
  end
  begin
     id 17 
     name lclavicle
     direction 0.93913 0.332189 -0.087669  
     length 3.52087  
     axis 0 0 0   XYZ
    dof ry rz
    limits (-20.0 10.0)
           (0.0 20.0)
  end
  begin
     id 18 
     name lhumerus
     direction 1 -4.48974e-011 -2.70836e-027   
     length 5.35289   
     axis -180 -30 -90   XYZ
    dof rx ry rz
    limits (-60.0 90.0)
           (-90.0 90.0)
           (-90.0 90.0)
  end
  begin
     id 19
     name lradius
     direction 1 -4.48961e-011 -9.76021e-027   
     length 3.27727   
     axis -180 -30 -90   XYZ
    dof rx
    limits (-10.0 170.0)
  end
  begin
     id 20
     name lwrist
     direction 1 -4.49103e-011 -2.23668e-026   
     length 1.63864   
     axis 1.44924e-014 90 90   XYZ
    dof ry
    limits (-180.0 0.0)
 end
  begin
     id 21 
     name lhand
     direction 1 3.0697e-005 0.000161777   
     length 0.54443   
     axis 2.85318e-014 90 90   XYZ
    dof rx rz
    limits (-90.0 90.0)
           (-45.0 45.0)
  end
  begin
     id 22 
     name lfingers
     direction 1 -4.49027e-011 -8.9447e-026   
     length 0.438912   
     axis 5.70628e-014 90 90   XYZ
    dof rx
    limits (0.0 90.0)
  end
  begin
     id 23
     name lthumb
     direction 0.707058 2.6516e-005 0.707156   
     length 0.630274   
     axis -90 45 -3.53137e-014   XYZ
    dof rx rz
    limits (-45.0 45.0)
           (-45.0 45.0)
  end
  begin
     id 24 
     name rclavicle
     direction -0.95274 0.284984 -0.105215   
     length 3.43401  
     axis 0 0 0   XYZ 
    dof ry rz
    limits (-10.0 20.0)
           (-20.0 0.0)
  end
  begin
     id 25 
     name rhumerus
     direction -0.999999 -0.000575019 -0.00106829  
     length 5.52077   
     axis -180 30 90   XYZ
    dof rx ry rz
    limits (-90.0 60.0)
           (-90.0 90.0)
           (-90.0 90.0)
  end
  begin
     id 26 
     name rradius
     direction -1 -4.4879e-011 -6.35415e-027   
     length 3.32364   
     axis -180 30 90   XYZ
    dof rx
    limits (-10.0 170.0)
  end
  begin
     id 27 
     name rwrist
     direction -1 -4.49048e-011 -9.98542e-027   
     length 1.66182   
     axis 6.32482e-015 -90 -90   XYZ
    dof ry
    limits (-180.0 0.0)
  end
  begin
     id 28
     name rhand
     direction -1 -4.48978e-011 -1.99771e-026   
     length 0.732235   
     axis 1.27479e-014 -90 -90   XYZ
    dof rx rz
    limits (-90.0 90.0)
           (-45.0 45.0)
  end
  begin
     id 29
     name rfingers
     direction -1 -4.49144e-011 -3.99245e-026   
     length 0.590347   
     axis 2.5496e-014 -90 -90   XYZ
    dof rx
    limits (0.0 90.0)
  end
  begin
     id 30
     name rthumb
     direction -0.707107 -6.35121e-011 0.707107   
     length 0.847624   
     axis -90 -45 -2.82974e-014   XYZ
    dof rx rz
    limits (-45.0 45.0)
           (-45.0 45.0)
  end
:hierarchy
  begin
    root lhipjoint rhipjoint lowerback
    lhipjoint lfemur
    lfemur ltibia
    ltibia lfoot
    lfoot ltoes
    rhipjoint rfemur
    rfemur rtibia
    rtibia rfoot
    rfoot rtoes
    lowerback upperback
    upperback thorax
    thorax lowerneck lclavicle rclavicle
    lowerneck upperneck
    upperneck head
    lclavicle lhumerus
    lhumerus lradius
    lradius lwrist
    lwrist lhand lthumb
    lhand lfingers
    rclavicle rhumerus
    rhumerus rradius
    rradius rwrist
    rwrist rhand rthumb
    rhand rfingers
  end

#!OML:ASF G:\Work\Work\Patient Classification 1\Elijah\terrain1\Elijah.ASF
:FULLY-SPECIFIED
:DEGREES
2567
root 3.32485 20.9746 21.7921 903.899 -1.12515 184.503
lowerback 10.6407 0.836558 4.01938
upperback 3.52214 1.1487 3.02744
thorax -2.26217 0.368641 0.746294
lowerneck -15.7465 9.05063 6.38894
upperneck 30.4908 11.1072 -4.33744
head 13.5585 4.4846 -1.07341
rclavicle 2.5842e-015 1.15295e-014
rhumerus -37.3415 20.5748 -90.5079
rradius 49.8838
rwrist -11.9724
rhand -9.70828 18.0963
rfingers 7.12502
rthumb 16.2645 -11.2415
lclavicle 2.5842e-015 1.15295e-014
lhumerus -40.8064 16.5036 75.3615
lradius 29.1064
lwrist 6.23169
lhand -14.6983 22.6218
lfingers 7.12502
lthumb 11.4557 52.2888
rfemur 2.61351 3.10719 31.728
rtibia 19.1433
rfoot -4.64309 6.49428
rtoes -0.393248
lfemur -65.7862 3.66162 -17.3731
ltibia 67.007
lfoot -6.81177 -17.6811
ltoes -7.87658
2568
root 3.30594 20.9717 21.6969 904.026 -0.597793 184.727
lowerback 11.6346 0.7206 4.03776
upperback 3.04006 1.11064 2.96906
thorax -3.31047 0.343606 0.671691
lowerneck -14.8948 8.82788 6.0103
upperneck 30.4292 10.6737 -3.82583
head 13.2567 4.31237 -0.931434
rclavicle 5.66536e-015 1.51076e-014
rhumerus -38.0798 20.9381 -91.0333
rradius 50.6599
rwrist -12.081
rhand -8.95757 17.6588
rfingers 7.12502
rthumb 16.9873 -11.6184
lclavicle 5.66536e-015 1.51076e-014
lhumerus -41.7273 16.1262 75.0461
lradius 29.6549
lwrist 6.62472
lhand -14.6103 22.8897
lfingers 7.12502
lthumb 11.5406 52.5519
rfemur 2.89452 3.26926 31.8583
rtibia 19.0477
rfoot -4.19586 6.65113
rtoes -1.26346
lfemur -65.3421 3.46299 -16.6728
ltibia 65.9073
lfoot -7.19322 -16.9693
ltoes -8.58493
2569
root 3.29393 20.9708 21.6112 904.307 -0.181587 184.89
lowerback 11.2605 0.280799 4.14473
upperback 3.408 1.39709 2.79009
thorax -2.73553 0.88229 0.371173
lowerneck -15.5751 8.99063 6.36407
upperneck 30.8028 10.8195 -3.88797
head 13.6022 4.39166 -0.956404
rclavicle -2.88238e-015 -4.37326e-015
rhumerus -37.2787 20.8016 -90.8595
rradius 51.1022
rwrist -12.1291
rhand -8.85192 17.8937
rfingers 7.12502
rthumb 17.089 -11.3747
lclavicle -2.88238e-015 -4.37326e-015
lhumerus -40.7764 15.6383 75.3336
lradius 29.8557
lwrist 6.86516
lhand -14.1806 23.9344
lfingers 7.12502
lthumb 11.955 53.573
rfemur 3.01847 3.38778 31.95
rtibia 18.8763
rfoot -3.59257 6.74262
rtoes -1.6552
lfemur -65.0893 3.2982 -16.0566
ltibia 64.9268
lfoot -6.78374 -16.5203
ltoes -6.91716
2570
root 3.26107 20.9779 21.4823 904.434 0.821938 184.963
lowerback 11.6402 0.424841 4.04307
upperback 3.1714 1.58096 2.72465
thorax -3.18665 0.952704 0.326406
lowerneck -15.795 9.48435 6.94063
upperneck 31.6261 11.3824 -4.12897
head 14.1132 4.61215 -1.03724
rclavicle -1.0138e-014 -5.56597e-014
rhumerus -37.8067 21.3356 -91.1649
rradius 51.6134
rwrist -11.7994
rhand -9.32339 18.5959
rfingers 7.12502
rthumb 16.6351 -10.7113
lclavicle -1.0138e-014 -5.56597e-014
lhumerus -41.2717 15.6456 75.1174
lradius 30.1126
lwrist 7.02894
lhand -13.7837 24.7297
lfingers 7.12502
lthumb 12.3376 54.3456
rfemur 3.52657 3.67427 31.733
rtibia 18.5894
rfoot -2.94185 7.51889
rtoes -1.00743
lfemur -64.3887 3.44549 -15.5161
ltibia 64.117
lfoot -6.73098 -16.0158
ltoes -6.79399
2571
root 3.2368 20.977 21.3616 904.685 1.32685 184.909
lowerback 10.4311 0.670953 4.25163
upperback 3.95863 1.85572 2.47607
thorax -1.68358 1.14135 -0.0462342
lowerneck -16.6187 9.40261 6.97496
upperneck 31.4849 11.3298 -4.24775
head 14.2385 4.59651 -1.05735
rclavicle -1.94809e-014 -1.74931e-014
rhumerus -36.4448 20.8614 -90.6172
rradius 52.1315
rwrist -11.6967
rhand -9.62976 18.9166
rfingers 7.12502
rthumb 16.3402 -10.415
lclavicle -1.94809e-014 -1.74931e-014
lhumerus -39.592 15.2967 75.5315
lradius 29.7721
lwrist 6.95148
lhand -13.7513 24.8048
lfingers 7.12502
lthumb 12.3689 54.4189
rfemur 3.78077 3.85545 31.503
rtibia 18.4418
rfoot -2.51386 7.96128
rtoes -0.663954
lfemur -63.9399 3.16643 -15.1886
ltibia 63.3812
lfoot -6.7461 -15.653
ltoes -8.61354
2572
root 3.21825 20.9878 21.2458 904.881 1.74823 184.718
lowerback 10.1418 0.787894 4.26594
upperback 4.21073 1.9729 2.08745
thorax -1.24482 1.21207 -0.456578
lowerneck -16.9273 9.38606 7.29352
upperneck 31.4174 11.2223 -4.28176
head 14.2969 4.59191 -1.1258
rclavicle 5.06901e-015 9.93923e-015
rhumerus -35.7695 20.4845 -90.663
rradius 52.9806
rwrist -12.5607
rhand -8.32002 17.6716
rfingers 7.12502
rthumb 17.6009 -11.5517
lclavicle 5.06901e-015 9.93923e-015
lhumerus -38.7899 14.8138 75.4198
lradius 29.5302
lwrist 7.17228
lhand -13.9009 24.1931
lfingers 7.12502
lthumb 12.2247 53.8159
rfemur 4.14558 3.99353 31.1329
rtibia 18.1743
rfoot -2.0848 8.27963
rtoes -0.35786
lfemur -63.3559 2.85893 -15.0828
ltibia 62.7006
lfoot -6.72112 -15.3648
ltoes -9.55586
2573
root 3.20145 20.977 21.1385 905.161 2.20555 184.724
lowerback 10.7238 0.770557 4.21321
upperback 3.80167 1.93907 1.8352
thorax -1.98168 1.15708 -0.707957
lowerneck -16.0533 9.49247 8.02614
upperneck 31.1613 11.2497 -4.59262
head 14.0793 4.65981 -1.39953
rclavicle -1.07344e-014 -1.09332e-014
rhumerus -36.3588 20.7035 -91.3352
rradius 53.3658
rwrist -12.0191
rhand -8.66597 18.0981
rfingers 7.12502
rthumb 17.268 -11.1547
lclavicle -1.07344e-014 -1.09332e-014
lhumerus -39.1628 14.5242 74.9388
lradius 29.5115
lwrist 7.52109
lhand -14.1414 24.3456
lfingers 7.12502
lthumb 11.9927 53.982
rfemur 4.27903 4.09538 30.926
rtibia 18.0771
rfoot -1.50794 8.7851
rtoes 0.667625
lfemur -62.9861 2.68768 -14.8397
ltibia 62.2037
lfoot -6.70271 -15.0586
ltoes -10.3464
2574
root 3.17406 20.9785 21.0025 905.35 2.94815 184.861
lowerback 10.753 0.929976 4.39379
upperback 3.67365 2.14564 1.63407
thorax -2.10692 1.24704 -1.04482
lowerneck -15.6636 9.22246 7.61997
upperneck 31.1302 10.8149 -4.19425
head 13.8848 4.47157 -1.27671
rclavicle 2.32578e-014 1.94809e-014
rhumerus -36.8178 20.4333 -91.5869
rradius 54.546
rwrist -12.4167
rhand -8.34274 17.1177
rfingers 7.12502
rthumb 17.579 -12.1076
lclavicle 2.32578e-014 1.94809e-014
lhumerus -39.1415 14.3603 74.5962
lradius 29.1723
lwrist 7.50334
lhand -14.285 24.6781
lfingers 7.12502
lthumb 11.8543 54.3225
rfemur 4.54025 4.27067 30.7513
rtibia 18.0358
rfoot -0.964283 9.53816
rtoes 1.19647
lfemur -62.3816 2.69272 -14.475
ltibia 61.8591
lfoot -7.12771 -14.7421
ltoes -10.895
2575
root 3.15649 20.9717 20.8812 905.745 3.24866 184.936
lowerback 10.766 0.949132 4.52279
upperback 3.51712 2.15628 1.39504
thorax -2.26127 1.23661 -1.36914
lowerneck -15.7468 9.07877 7.36912
upperneck 31.2298 10.587 -4.00312
head 13.8964 4.35668 -1.2015
rclavicle -5.71506e-015 -2.26615e-014
rhumerus -36.9839 20.2369 -91.9018
rradius 55.4762
rwrist -12.7071
rhand -8.76168 17.0611
rfingers 7.12502
rthumb 17.1758 -12.1998
lclavicle -5.71506e-015 -2.26615e-014
lhumerus -38.9136 14.3691 74.0595
lradius 28.6421
lwrist 7.46355
lhand -14.2581 23.8661
lfingers 7.12502
lthumb 11.8802 53.5091
rfemur 4.5105 4.26411 30.6144
rtibia 18.094
rfoot -0.839379 10.0143
rtoes -0.475864
lfemur -62.1338 2.4421 -14.2474
ltibia 61.6337
lfoot -7.37725 -14.6522
ltoes -11.0037
2576
root 3.13929 20.9668 20.7572 906.138 3.43229 184.829
lowerback 10.6269 0.96645 4.36383
upperback 3.48377 2.13395 1.21839
thorax -2.21941 1.21941 -1.45669
lowerneck -16.6879 9.95709 8.53596
upperneck 31.8946 11.7109 -4.62612
head 14.6333 4.86491 -1.38367
rclavicle -1.39149e-014 2.83268e-015
rhumerus -36.8137 20.0878 -91.9464
rradius 56.1416
rwrist -12.6565
rhand -8.94543 17.0042
rfingers 7.12502
rthumb 16.999 -12.272
lclavicle -1.39149e-014 2.83268e-015
lhumerus -38.3873 14.4781 73.7778
lradius 27.9589
lwrist 7.39861
lhand -14.3901 22.8274
lfingers 7.12502
lthumb 11.7529 52.4776
rfemur 4.65704 4.3062 30.3097
rtibia 17.8496
rfoot -0.668976 10.3273
rtoes -2.5805
lfemur -61.8237 2.08131 -14.2674
ltibia 61.4646
lfoot -7.41249 -14.5528
ltoes -11.8169
2577
root 3.12905 20.962 20.6317 906.428 3.44485 184.759
lowerback 10.0345 1.00116 4.56985
upperback 3.80373 2.15471 0.816103
thorax -1.53668 1.25633 -1.96475
lowerneck -16.637 9.02926 7.3581
upperneck 31.1806 10.457 -3.78843
head 14.0423 4.33982 -1.09708
rclavicle 1.04113e-014 -2.49226e-014
rhumerus -36.0691 19.3703 -91.9957
rradius 56.4535
rwrist -12.192
rhand -10.1907 18.5958
rfingers 7.12502
rthumb 15.8 -10.7794
lclavicle 1.04113e-014 -2.49226e-014
lhumerus -37.2117 14.1753 73.5204
lradius 27.322
lwrist 7.25088
lhand -14.6552 23.0734
lfingers 7.12502
lthumb 11.4973 52.7381
rfemur 4.89059 4.41273 30.1415
rtibia 17.6499
rfoot -0.180051 10.4177
rtoes -2.01054
lfemur -61.3752 1.66855 -14.2761
ltibia 61.2548
lfoot -7.20435 -14.5582
ltoes -11.7504
2578
root 3.10828 20.9657 20.4763 906.565 4.08522 184.832
lowerback 10.8381 1.04316 4.3745
upperback 3.17284 2.19205 0.661756
thorax -2.63133 1.21577 -2.05971
lowerneck -16.7318 9.1549 7.10134
upperneck 32.0676 10.3561 -3.05446
head 14.3803 4.30134 -0.78577
rclavicle -8.99501e-015 0
rhumerus -37.0327 19.3485 -92.4981
rradius 57.6912
rwrist -13.6561
rhand -10.2898 19.1064
rfingers 7.12502
rthumb 15.7046 -10.2763
lclavicle -8.99501e-015 0
lhumerus -38.2237 14.0767 72.8198
lradius 27.3297
lwrist 7.3951
lhand -14.9639 24.4029
lfingers 7.12502
lthumb 11.1995 54.0839
rfemur 5.43421 4.66564 29.9066
rtibia 17.3845
rfoot 0.634842 10.8901
rtoes 0.00752596
lfemur -60.526 1.77113 -14.2705
ltibia 60.9947
lfoot -7.34965 -14.6645
ltoes -9.48194
2579
root 3.09327 20.9679 20.346 906.887 4.51275 184.885
lowerback 10.7915 1.17669 4.29983
upperback 3.07522 2.33781 0.471652
thorax -2.6921 1.27845 -2.23344
lowerneck -15.5637 9.27065 8.32799
upperneck 30.9935 10.6651 -4.28305
head 13.8553 4.47639 -1.45707
rclavicle 2.4699e-014 -9.93923e-016
rhumerus -37.142 19.0316 -92.6429
rradius 58.3496
rwrist -13.8846
rhand -9.30624 17.3901
rfingers 7.12502
rthumb 16.6516 -11.9156
lclavicle 2.4699e-014 -9.93923e-016
lhumerus -37.9396 13.8218 72.6044
lradius 27.1179
lwrist 7.63395
lhand -15.2882 25.3457
lfingers 7.12502
lthumb 10.8867 55.0435
rfemur 5.74329 4.76759 29.6938
rtibia 16.966
rfoot 1.60322 11.2147
rtoes 0.606277
lfemur -60.006 1.76731 -14.3495
ltibia 60.7128
lfoot -7.71229 -14.8976
ltoes -6.7546
2580
root 3.07355 20.9754 20.2049 907.24 4.60314 184.906
lowerback 10.5644 1.19288 4.28066
upperback 3.02503 2.32827 0.321516
thorax -2.61408 1.26938 -2.37009
lowerneck -14.7754 6.8984 9.9329
upperneck 29.8677 11.832 -6.20416
head 13.5018 6.24657 -2.00758
rclavicle -5.56597e-015 -3.37934e-015
rhumerus -37.3601 18.647 -92.7143
rradius 59.0782
rwrist -13.7482
rhand -9.46785 17.3599
rfingers 7.12502
rthumb 16.496 -11.9588
lclavicle -5.56597e-015 -3.37934e-015
lhumerus -37.5345 13.8496 72.3774
lradius 26.6454
lwrist 7.46242
lhand -15.4561 26.0224
lfingers 7.12502
lthumb 10.7249 55.7286
rfemur 6.08563 4.77668 29.5168
rtibia 16.3289
rfoot 2.85058 11.3044
rtoes 2.82356
lfemur -59.5527 1.29945 -14.3171
ltibia 60.6084
lfoot -8.3954 -14.6561
ltoes -5.35629
2581
root 3.06158 20.9952 20.0628 907.694 4.75467 185.131
lowerback 10.0658 1.27765 4.36156
upperback 3.18497 2.42108 0.238519
thorax -2.15984 1.33085 -2.48982
lowerneck -16.2541 9.15193 8.38329
upperneck 30.8146 10.5401 -4.44065
head 13.931 4.42126 -1.51913
rclavicle 4.07509e-015 -6.36111e-015
rhumerus -37.2083 18.3291 -92.6377
rradius 59.6993
rwrist -13.4676
rhand -10.7355 18.9349
rfingers 7.12502
rthumb 15.2753 -10.4811
lclavicle 4.07509e-015 -6.36111e-015
lhumerus -36.5628 14.1271 72.2517
lradius 25.9776
lwrist 6.91339
lhand -15.6935 26.6325
lfingers 7.12502
lthumb 10.4959 56.3505
rfemur 6.27075 4.8682 29.5795
rtibia 15.762
rfoot 4.20542 11.4528
rtoes 4.7905
lfemur -59.3501 0.920552 -13.923
ltibia 60.7797
lfoot -9.45169 -13.6576
ltoes -6.59768
